<?xml version="1.0" encoding="UTF-8" standalone="no"?>
        <svg 
    viewBox="4.0283203125 -87.12158203125 446.5576171875 57.67822265625"
    width="442.529296875"
    height="144.7998046875"
   xmlns="http://www.w3.org/2000/svg"
   xmlns:svg="http://www.w3.org/2000/svg">
   <path d="M48.93-27.32L50.54-27.91Q59.03-24.46 63.50-20.32Q67.97-16.19 69.29-12.12Q70.61-8.06 69.54-4.80Q68.48-1.54 65.92 0.26Q63.35 2.05 60.06 1.68Q56.76 1.32 53.54-1.98L53.54-1.98Q53.91-8.35 52.40-15.20Q50.90-22.05 48.93-27.32L48.93-27.32ZM104.37-88.33L104.37-88.33L128.98-81.74Q128.25-78.66 123.49-78.88L123.49-78.88Q120.19-75.88 116.24-72.18Q112.28-68.48 108.03-65.26L108.03-65.26L118.80-65.26L127.81-76.32Q127.81-76.32 130.59-74.23Q133.37-72.14 137.18-69.14Q140.99-66.14 144.14-63.43L144.14-63.43Q143.48-61.08 140.11-61.08L140.11-61.08L119.53-61.08L119.53-43.65L127.51-53.83Q127.51-53.83 130.08-51.78Q132.64-49.73 136.16-46.84Q139.67-43.95 142.53-41.38L142.53-41.38Q141.87-38.96 138.43-38.96L138.43-38.96L119.53-38.96L119.53-21.90L127.51-32.23Q127.51-32.23 130.19-30.10Q132.86-27.98 136.56-24.94Q140.26-21.90 143.26-19.19L143.26-19.19Q142.60-16.77 139.23-16.77L139.23-16.77L119.53-16.77L119.53 1.46L120.48 1.46L129.93-10.62Q129.93-10.62 132.82-8.35Q135.72-6.08 139.71-2.82Q143.70 0.44 146.85 3.30L146.85 3.30Q146.41 5.71 142.82 5.71L142.82 5.71L92.43 5.71L92.43 9.01Q92.43 10.03 88.18 12.38Q83.94 14.72 76.46 14.72L76.46 14.72L72.88 14.72L72.88-52.95Q71.12-51.64 69.21-50.46Q67.31-49.29 65.41-48.12L65.41-48.12Q70.02-44.38 70.50-40.28Q70.97-36.18 68.66-33.22Q66.36-30.25 62.44-29.77Q58.52-29.30 54.42-32.67L54.42-32.67Q54.42-34.72 54.05-36.84Q53.69-38.96 53.10-41.09L53.10-41.09L47.83-39.48L47.83 10.62Q47.83 11.21 43.80 12.82Q39.77 14.43 32.52 14.43L32.52 14.43L29.08 14.43L29.08-17.29Q24.90-8.35 19.08-1.72Q13.26 4.91 6.30 9.16L6.30 9.16L4.32 7.76Q8.50 0.95 11.50-8.61Q14.50-18.16 15.75-28.64L15.75-28.64L29.08-25.05L29.08-33.91L14.87-30.03Q14.06-28.56 12.89-27.83Q11.72-27.10 10.47-26.88L10.47-26.88L4.03-44.53L24.17-44.38Q29.66-51.49 35.89-60.94Q42.11-70.39 47.39-79.83L47.39-79.83L67.02-67.53Q66.28-66.36 64.67-65.81Q63.06-65.26 60.57-65.84L60.57-65.84Q54.05-59.91 46.84-54.42Q39.62-48.93 32.52-44.38L32.52-44.38L51.93-44.53Q50.90-47.24 49.66-49.73Q48.41-52.22 46.95-54.13L46.95-54.13L48.27-54.93Q52.59-54.13 55.88-53.03Q59.18-51.93 61.67-50.54L61.67-50.54Q66.80-58.52 71.30-69.18Q75.81-79.83 78.59-91.19L78.59-91.19L102.76-81.59Q101.51-78.44 96.61-78.88L96.61-78.88Q94.70-75.88 92.69-72.99Q90.67-70.09 88.48-67.53L88.48-67.53L94.48-65.26L101.22-65.26Q102.25-70.46 103.09-76.87Q103.93-83.28 104.37-88.33ZM16.04-85.18L16.04-119.97L16.04-128.39L38.23-119.97L111.77-119.97L120.92-130.08L140.26-115.65Q139.60-114.77 138.10-113.85Q136.60-112.94 134.25-112.35L134.25-112.35L134.25-90.60Q134.18-90.16 131.21-89.17Q128.25-88.18 124.18-87.38Q120.12-86.57 116.82-86.57L116.82-86.57L113.23-86.57L113.23-92.07L36.62-92.07L36.62-91.33Q36.62-90.89 36.18-90.45L36.18-90.45L51.64-84.30Q50.32-81.15 45.48-81.59L45.48-81.59Q37.28-74.85 28.34-69.87L28.34-69.87Q31.64-66.94 31.86-63.46Q32.08-59.99 30.03-57.35Q27.98-54.71 24.43-54.05Q20.87-53.39 16.77-55.96L16.77-55.96Q16.04-61.01 12.93-66.14Q9.81-71.26 6.30-74.41L6.30-74.41L7.47-75.29Q17.14-75.29 22.78-73.02L22.78-73.02L26.73-86.28Q24.90-85.77 22.85-85.47Q20.80-85.18 18.90-85.18L18.90-85.18L16.04-85.18ZM101.37-43.21L101.37-61.08L92.43-61.08L92.43-43.21L101.37-43.21ZM92.43 1.46L101.37 1.46L101.37-16.77L92.43-16.77L92.43 1.46ZM92.43-21.02L101.37-21.02L101.37-38.96L92.43-38.96L92.43-21.02ZM36.62-115.80L36.62-96.31L49.37-96.31L49.37-115.80L36.62-115.80ZM100.05-96.31L113.23-96.31L113.23-115.80L100.05-115.80L100.05-96.31ZM68.12-115.80L68.12-96.31L81.15-96.31L81.15-115.80L68.12-115.80ZM243.75-103.49L243.75-103.49L213.72-103.49Q210.28-99.54 206.43-95.76Q202.59-91.99 198.27-88.48L198.27-88.48Q207.13-87.89 212.33-85.33Q217.53-82.76 219.69-79.25Q221.85-75.73 221.56-72.29L221.56-72.29Q235.47-87.30 243.75-103.49ZM202.51-128.69L202.51-128.69L231.45-120.78Q231.01-119.53 229.80-118.98Q228.59-118.43 225.29-118.65L225.29-118.65Q223.54-115.87 221.56-113.12Q219.58-110.38 217.38-107.67L217.38-107.67L243.60-107.67L256.93-119.97L277.22-100.93Q276.27-99.46 274.77-98.88Q273.27-98.29 270.12-98.07L270.12-98.07Q261.04-83.13 248.14-70.42Q235.25-57.71 218.70-47.68L218.70-47.68L220.02-47.24L262.21-47.24L272.39-58.52L292.97-42.63Q292.16-41.60 290.59-40.58Q289.01-39.55 286.38-38.96L286.38-38.96L286.38 7.47Q286.30 8.20 283.23 9.59Q280.15 10.99 275.83 12.16Q271.51 13.33 267.63 13.33L267.63 13.33L263.82 13.33L263.82 0.44L217.97 0.44L217.97 8.28Q217.97 8.94 215.84 10.40Q213.72 11.87 209.77 13.15Q205.81 14.43 200.24 14.43L200.24 14.43L196.22 14.43L196.22-36.18Q186.55-32.08 175.96-28.78Q165.38-25.49 153.88-23.22L153.88-23.22L153.00-24.76Q169.19-31.86 184.09-41.38Q199.00-50.90 211.38-62.26L211.38-62.26Q207.50-61.82 203.10-64.23L203.10-64.23Q201.64-69.29 198.56-74.38Q195.48-79.47 191.97-83.57L191.97-83.57Q184.20-77.71 175.74-73.02Q167.29-68.33 158.28-65.11L158.28-65.11L157.32-66.14Q166.85-72.95 175.71-83.20Q184.57-93.46 191.56-105.25Q198.56-117.04 202.51-128.69ZM217.97-3.74L263.82-3.74L263.82-43.07L217.97-43.07L217.97-3.74ZM421.22-34.94L421.22-34.94L443.70-19.34Q441.72-17.14 436.52-18.31L436.52-18.31Q420.41-6.52 404.11 0.26Q387.82 7.03 370.39 10.11Q352.95 13.18 333.33 13.92L333.33 13.92L332.89 11.87Q350.32 7.91 366.06 2.20Q381.81-3.52 395.62-12.45Q409.42-21.39 421.22-34.94ZM412.06-57.13L412.06-57.13L431.25-42.77Q430.44-41.75 429.09-41.42Q427.73-41.09 425.39-41.82L425.39-41.82Q416.46-35.60 403.64-30.36Q390.82-25.12 375.55-21.53Q360.28-17.94 344.09-16.63L344.09-16.63L343.36-18.60Q357.28-22.71 370.53-28.89Q383.79-35.08 394.59-42.37Q405.40-49.66 412.06-57.13ZM307.03-75L305.86-79.17L391.19-79.17Q389.06-80.64 386.10-82.32Q383.13-84.01 379.61-85.99L379.61-85.99Q368.26-83.72 355.66-82.40Q343.07-81.08 331.05-81.01L331.05-81.01L330.62-83.13Q339.26-84.81 348.12-87.41Q356.98-90.01 365.11-93.16L365.11-93.16Q354.13-98.29 341.24-102.91L341.24-102.91L341.67-104.88Q355.30-105.18 365.52-104.08Q375.73-102.98 382.76-100.93L382.76-100.93Q384.96-102.10 386.94-103.20Q388.92-104.30 390.75-105.47L390.75-105.47L315.01-105.47L313.77-109.64L363.72-109.64L363.72-128.10L390.31-126.12Q390.09-124.66 389.14-123.67Q388.18-122.68 385.47-122.24L385.47-122.24L385.47-109.64L406.05-109.64L417.33-123.63Q417.33-123.63 419.42-122.09Q421.51-120.56 424.73-118.14Q427.95-115.72 431.51-113.01Q435.06-110.30 437.99-107.89L437.99-107.89Q437.33-105.47 433.67-105.47L433.67-105.47L402.91-105.47L417.63-96.31Q416.67-95.07 414.40-94.45Q412.13-93.82 408.47-94.48L408.47-94.48Q406.79-93.68 404.85-92.91Q402.91-92.14 400.78-91.48L400.78-91.48Q404.15-87.82 403.82-84.41Q403.49-81.01 400.78-79.17L400.78-79.17L414.18-79.17L425.68-93.31Q425.68-93.31 427.77-91.77Q429.86-90.23 433.12-87.78Q436.38-85.33 439.97-82.58Q443.55-79.83 446.56-77.42L446.56-77.42Q446.19-76.17 444.98-75.59Q443.77-75 442.24-75L442.24-75L401.07-75L419.68-60.13Q418.95-59.25 417.66-58.92Q416.38-58.59 413.96-59.40L413.96-59.40Q406.13-55.52 395.32-52.29Q384.52-49.07 372.25-46.84Q359.99-44.60 347.68-43.80L347.68-43.80L346.80-45.78Q356.98-49.15 367.35-54.02Q377.71-58.89 386.46-64.34Q395.21-69.80 400.78-75L400.78-75L346.22-75Q345.85-61.01 344.53-48.27Q343.21-35.52 339.22-24.24Q335.23-12.96 327.10-3.30Q318.97 6.37 305.13 14.28L305.13 14.28L303.59 12.30Q311.35 2.93 315.56-7.25Q319.78-17.43 321.50-28.38Q323.22-39.33 323.55-50.98Q323.88-62.62 323.88-75L323.88-75L307.03-75Z"/>
    </svg>
        