<svg width="205" height="205" version="1.1" xmlns="http://www.w3.org/2000/svg" xmlns:xlink="http://www.w3.org/1999/xlink"><path d="M173.43 125.05L173.43 125.05Q165.44 130.79 158.47 146.17L158.47 146.17L156.62 150.27L161.13 154.57Q161.95 155.60 162.36 156.83L162.36 156.83L160.93 158.06L120.34 160.72Q108.45 161.95 98.81 163.80L98.81 163.80Q98.81 166.87 96.97 169.54L96.97 169.54Q91.84 167.49 90.00 159.90L90.00 159.90Q89.38 158.06 88.36 150.47L88.36 150.47Q86.10 134.48 81.18 121.98L81.18 121.98Q55.97 140.43 51.46 143.50L51.46 143.50Q26.65 159.90 14.35 159.70L14.35 159.70Q14.97 157.65 18.66 155.80L18.66 155.80Q19.07 155.60 19.48 155.19L19.48 155.19Q60.27 129.97 95.12 95.33L95.12 95.33Q121.98 68.47 134.48 45.51L134.48 45.51Q134.89 44.90 134.89 43.05L134.89 43.05Q133.46 41.21 123.82 43.26L123.82 43.26Q108.65 46.54 101.89 42.44L101.89 42.44Q93.28 51.87 80.36 61.71L80.36 61.71Q92.46 66.83 95.74 69.09L95.74 69.09Q98.40 71.14 100.45 73.80L100.45 73.80Q102.09 79.75 100.25 83.03L100.25 83.03Q99.43 84.67 97.58 84.67L97.58 84.67L94.71 83.64L82.82 70.73Q79.75 67.04 78.11 63.35L78.11 63.35L64.98 70.11Q60.48 71.75 56.17 71.75L56.17 71.75L56.17 70.32Q62.12 64.37 67.04 61.91L67.04 61.91L70.93 60.07Q73.19 58.63 79.95 52.28L79.95 52.28Q99.02 34.65 103.12 20.09L103.12 20.09Q104.14 16.19 104.35 12.09L104.35 12.09L105.58 10.87Q112.55 11.48 119.93 20.71L119.93 20.71L119.72 23.58L105.17 38.34Q119.52 37.72 133.25 32.80L133.25 32.80L141.66 29.52Q142.89 29.31 144.12 29.31L144.12 29.31Q149.24 29.31 158.67 35.88L158.67 35.88Q160.52 37.11 161.54 38.13L161.54 38.13L161.34 40.59Q150.88 47.15 132.84 69.29L132.84 69.29Q126.08 77.70 124.03 79.95L124.03 79.95Q109.06 96.97 86.31 117.47L86.31 117.47L91.84 119.31Q114.60 117.26 132.02 113.16L132.02 113.16L148.01 108.45Q149.24 108.04 150.47 108.04L150.47 108.04Q155.39 107.42 166.26 113.57L166.26 113.57Q171.59 116.44 173.02 118.70L173.02 118.70Q174.66 120.75 174.05 123.21L174.05 123.21Q174.05 124.03 173.43 125.05ZM141.66 119.31L95.53 126.08L99.22 155.80Q124.64 153.14 144.53 149.45L144.53 149.45Q151.29 131.41 151.29 125.26L151.29 125.26Q151.50 121.57 149.86 119.93L149.86 119.93Q148.01 118.08 141.66 119.31L141.66 119.31Z" stroke="#000" fill="black" /></svg>