<svg width="205" height="205" version="1.1" xmlns="http://www.w3.org/2000/svg" xmlns:xlink="http://www.w3.org/1999/xlink"><path d="M125.67 30.96L125.67 30.96Q125.67 37.31 123.41 38.75L123.41 38.75Q116.85 38.75 109.06 30.96L109.06 30.96Q104.96 27.06 103.53 25.83L103.53 25.83L102.91 22.14L105.17 21.12Q121.98 21.12 125.67 30.96ZM161.95 44.08L161.95 44.08Q161.95 45.92 159.49 46.74L159.49 46.74Q159.08 46.95 149.86 47.77L149.86 47.77Q148.83 47.97 148.22 47.97L148.22 47.97Q135.09 49.61 126.28 51.46L126.28 51.46Q129.15 52.89 131.41 57.20L131.41 57.20Q131.20 59.25 126.90 62.73L126.90 62.73Q125.26 64.17 124.44 65.19L124.44 65.19L122.18 67.65Q134.28 70.32 138.17 74.83L138.17 74.83L139.81 77.29Q139.81 80.77 138.78 82.00L138.78 82.00L116.85 75.24L114.39 74.62Q100.86 85.49 86.51 89.79L86.51 89.79L83.44 89.38L102.09 76.47Q104.76 74.21 107.01 72.16L107.01 72.16L92.87 66.83L92.46 66.63L92.46 65.40L112.14 66.63Q118.70 58.22 119.93 52.69L119.93 52.69Q117.47 52.28 72.37 60.89L72.37 60.89Q64.78 59.25 62.94 54.53L62.94 54.53L64.37 53.51Q102.09 47.77 129.15 42.84L129.15 42.84L145.76 38.75Q156.83 37.11 161.95 44.08ZM143.71 125.05L143.71 125.05L143.30 128.13L121.98 146.99Q97.99 166.67 82.41 165.64L82.41 165.64L108.04 145.76Q125.05 131.41 128.53 119.72L128.53 119.72Q130.18 118.29 135.71 119.93L135.71 119.93L141.66 122.80Q143.09 123.82 143.71 125.05ZM170.15 84.87L170.15 84.87Q169.33 90.20 134.89 94.92L134.89 94.92Q127.10 95.94 125.26 96.35L125.26 96.35Q132.02 98.40 133.87 101.27L133.87 101.27Q133.87 103.94 129.77 107.63L129.77 107.63Q128.95 108.24 128.53 108.65L128.53 108.65Q110.50 125.05 101.27 130.59L101.27 130.59Q88.77 137.97 78.93 137.35L78.93 137.35L100.86 120.95Q117.67 107.01 119.72 97.17L119.72 97.17Q117.06 97.17 95.74 99.84L95.74 99.84Q82.62 101.48 74.01 100.25L74.01 100.25Q71.55 106.81 68.88 125.26L68.88 125.26Q68.47 127.31 68.27 128.95L68.27 128.95Q59.66 176.51 28.29 191.06L28.29 191.06L24.60 192.70L18.45 192.70L19.07 190.86Q41.21 175.69 50.64 153.34L50.64 153.34Q53.30 147.19 54.74 141.04L54.74 141.04Q60.07 116.65 59.66 106.19L59.66 106.19Q59.45 96.56 55.97 90.00L55.97 90.00Q55.97 87.74 57.81 87.13L57.81 87.13Q61.71 87.33 70.11 92.46L70.11 92.46Q71.96 93.48 72.98 94.10L72.98 94.10Q98.61 92.66 129.15 86.10L129.15 86.10L150.88 80.36Q153.14 80.16 154.98 79.95L154.98 79.95Q160.11 79.34 164.41 80.77L164.41 80.77Q168.31 82.21 170.15 84.87ZM153.55 156.62L153.55 156.62Q95.12 207.26 74.21 201.31L74.21 201.31L74.21 200.70Q124.44 174.87 135.09 153.14L135.09 153.14Q137.56 147.81 137.97 142.68L137.97 142.68Q140.22 139.81 146.37 144.12L146.37 144.12Q153.75 149.45 153.55 156.62Z" stroke="#000" fill="black" /></svg>