<svg width="205" height="205" version="1.1" xmlns="http://www.w3.org/2000/svg" xmlns:xlink="http://www.w3.org/1999/xlink"><path d="M132.84 77.90L132.84 77.90Q126.49 74.01 117.47 66.01L117.47 66.01Q117.47 63.76 118.08 62.73L118.08 62.73Q129.97 64.58 134.28 67.86L134.28 67.86Q135.30 68.47 136.12 69.29L136.12 69.29L136.53 76.67L136.53 76.88Q136.12 77.90 132.84 77.90ZM144.32 26.45L144.32 26.45Q144.32 29.32 139.81 33.01L139.81 33.01L137.15 35.67L128.74 49.61Q126.28 52.69 123.62 54.74L123.62 54.74Q121.16 54.94 120.34 53.10L120.34 53.10Q119.72 52.28 119.93 50.84L119.93 50.84L116.44 50.84L66.01 58.43Q62.73 59.04 59.04 59.04L59.04 59.04Q58.63 61.91 56.58 61.91L56.58 61.91Q51.87 58.63 48.38 48.59L48.38 48.59Q46.33 42.85 44.90 40.39L44.90 40.39L38.54 28.70Q39.36 26.45 50.64 27.27L50.64 27.27Q52.48 27.47 53.10 27.47L53.10 27.47Q55.56 27.27 69.09 24.60L69.09 24.60Q108.86 17.84 120.95 17.02L120.95 17.02Q126.49 16.61 131.00 16.61L131.00 16.61Q140.22 21.94 144.32 26.45ZM126.90 25.42L126.90 25.42L125.26 24.60Q118.49 23.99 110.91 24.60L110.91 24.60Q108.04 25.01 104.96 25.42L104.96 25.42Q108.86 27.47 108.86 29.93L108.86 29.93Q107.01 32.80 100.04 47.36L100.04 47.36L115.83 44.90Q118.90 44.69 120.95 45.31L120.95 45.31Q127.10 33.21 126.90 25.42ZM96.35 26.45L96.35 26.45Q78.52 28.91 74.83 29.93L74.83 29.93Q79.95 41.82 79.95 50.84L79.95 50.84L94.30 48.18L96.97 34.65Q97.38 30.14 96.35 26.45ZM75.44 51.66L75.44 51.66Q71.75 48.59 70.93 38.95L70.93 38.95Q70.52 33.42 69.50 30.96L69.50 30.96Q60.68 32.39 52.89 34.65L52.89 34.65L58.02 52.89L58.43 54.33Q66.01 52.69 75.44 51.66ZM168.31 156.21L168.31 156.21Q168.31 157.44 166.26 158.26L166.26 158.26L129.77 159.70Q115.21 160.72 103.94 163.59L103.94 163.59Q98.81 162.16 97.38 161.13L97.38 161.13L95.94 178.56Q94.51 186.96 92.25 186.76L92.25 186.76Q87.95 186.35 86.10 177.12L86.10 177.12Q85.69 175.28 85.69 174.05L85.69 174.05Q85.69 171.59 88.15 160.11L88.15 160.11Q88.56 157.44 88.77 155.39L88.77 155.39Q90.82 137.35 90.00 114.39L90.00 114.39Q89.59 99.02 86.92 96.97L86.92 96.97L78.31 104.35Q76.47 105.58 74.83 106.19L74.83 106.19L73.80 106.19L74.21 104.35Q90.00 84.26 93.69 71.14L93.69 71.14Q93.69 70.52 93.28 65.81L93.28 65.81Q93.07 63.55 94.30 62.53L94.30 62.53Q100.45 62.53 107.01 69.91L107.01 69.91Q106.81 73.19 93.28 90.00L93.28 90.00Q92.25 91.23 91.84 91.84L91.84 91.84Q96.97 94.51 98.40 96.97L98.40 96.97Q98.61 104.96 97.17 149.24L97.17 149.24Q97.17 153.34 96.97 157.03L96.97 157.03L122.39 153.75L122.59 153.75L122.59 138.17Q111.93 139.81 108.24 138.38L108.24 138.38Q105.99 137.56 104.55 135.92L104.55 135.92L105.58 134.89L122.18 132.02L122.59 119.11Q109.27 120.34 105.58 117.47L105.58 117.47Q105.78 115.62 119.93 112.96L119.93 112.96Q121.57 112.75 122.18 112.55L122.18 112.55Q121.77 101.48 119.52 96.56L119.52 96.56Q112.75 97.38 108.65 96.15L108.65 96.15L105.17 94.51L103.94 93.69L103.94 92.87Q105.58 92.66 144.53 83.44L144.53 83.44Q145.34 83.23 145.96 83.03L145.96 83.03Q151.09 83.85 152.73 85.90L152.73 85.90L152.52 87.74L127.10 94.71Q131.81 97.38 131.61 104.96L131.61 104.96L131.41 109.06L141.25 106.60Q147.19 105.78 149.86 109.47L149.86 109.47Q149.65 110.50 146.17 111.93L146.17 111.93Q132.84 116.24 131.00 116.85L131.00 116.85L131.00 129.56Q141.66 124.64 149.04 126.69L149.04 126.69Q150.27 127.10 151.29 127.72L151.29 127.72L151.91 130.18Q146.58 132.02 131.00 136.12L131.00 136.12L130.38 151.91Q133.25 152.11 146.37 149.65L146.37 149.65Q160.31 147.19 166.05 153.14L166.05 153.14Q167.28 154.37 168.31 156.21ZM72.98 91.02L72.98 91.02Q56.17 107.01 39.77 126.90L39.77 126.90Q43.87 126.90 55.76 123.00L55.76 123.00Q60.89 121.36 64.17 120.95L64.17 120.95Q64.17 120.13 62.73 115.62L62.73 115.62Q62.12 113.57 62.73 111.32L62.73 111.32Q64.98 111.32 67.65 114.80L67.65 114.80Q69.09 116.24 69.91 116.85L69.91 116.85Q74.42 124.23 72.37 127.92L72.37 127.92Q70.32 129.15 68.47 128.33L68.47 128.33Q67.45 122.18 61.91 124.64L61.91 124.64L54.94 127.72L53.71 127.92Q39.16 135.30 33.41 139.81L33.41 139.81Q29.73 139.81 26.04 134.69L26.04 134.69L26.04 131.41Q36.08 122.39 48.38 106.81L48.38 106.81Q39.16 108.04 28.91 113.16L28.91 113.16Q26.24 113.16 23.99 108.65L23.99 108.65Q23.37 107.22 23.37 106.19L23.37 106.19Q23.37 104.96 26.04 102.50L26.04 102.50Q34.23 94.92 39.98 81.39L39.98 81.39Q42.03 76.26 42.64 72.37L42.64 72.37L42.44 64.99Q49.00 64.99 54.74 72.78L54.74 72.78L54.74 75.24Q47.97 83.44 35.47 101.07L35.47 101.07Q35.47 103.94 51.05 102.09L51.05 102.09Q51.66 102.09 51.87 102.09L51.87 102.09Q58.63 90.82 59.66 86.10L59.66 86.10Q60.07 83.85 60.07 81.59L60.07 81.59Q63.55 78.52 69.29 84.46L69.29 84.46Q72.98 88.36 72.98 91.02ZM75.44 145.35L75.44 145.35Q75.44 152.32 72.98 153.55L72.98 153.55Q69.09 153.55 61.50 140.43L61.50 140.43Q60.89 139.20 60.48 138.79L60.48 138.79Q60.48 137.15 61.09 136.53L61.09 136.53Q70.11 138.17 75.44 145.35ZM56.79 154.98L56.79 154.98Q56.79 162.36 54.33 164.00L54.33 164.00Q52.48 163.80 49.00 159.49L49.00 159.49Q48.38 158.67 47.97 158.26L47.97 158.26L42.23 150.06Q41 147.40 42.03 145.35L42.03 145.35Q51.25 147.81 56.79 154.98ZM39.57 169.54L39.57 169.54L37.93 176.10Q37.11 177.94 35.05 178.76L35.05 178.76Q33.62 178.76 31.57 177.74L31.57 177.74Q30.34 175.89 23.78 162.36L23.78 162.36Q22.35 159.70 21.12 157.44L21.12 157.44L20.30 154.57L20.30 154.37Q20.30 148.83 28.29 155.19L28.29 155.19Q36.29 161.75 38.95 168.10L38.95 168.10Q39.36 168.92 39.57 169.54Z" stroke="#000" fill="black" /></svg>