<?xml version="1.0" encoding="utf-8"?>
<!-- Uploaded to: SVG Repo, www.svgrepo.com, Generator: SVG Repo Mixer Tools -->
<svg width="800px" height="800px" viewBox="-9.5 0 256 256" xmlns="http://www.w3.org/2000/svg" xmlns:xlink="http://www.w3.org/1999/xlink" preserveAspectRatio="xMidYMid">
  <defs>
    <style>

      .cls-3 {
        fill: #fce202;
      }

      .cls-4 {
        fill: #3a75c7;
      }

      .cls-5 {
        fill: #01bef2;
      }

      .cls-6 {
        fill: #1ae1ff;
      }
    </style>
  </defs>
  <g id="sleeping">
    <path d="M73.033,78.600 C73.033,152.253 133.520,211.960 210.754,211.960 C221.001,211.960 222.928,222.357 215.609,227.570 C192.230,244.220 164.488,255.719 133.547,255.719 C59.791,255.719 -0.000,196.011 -0.000,122.359 C-0.000,67.939 32.747,21.654 79.444,0.693 C83.967,-1.337 97.271,0.365 89.310,15.041 C79.004,34.041 73.033,55.469 73.033,78.600 Z" id="path-1" class="cls-3" fill-rule="evenodd"/>
    <path d="M177.941,164.969 C177.941,164.969 193.000,164.969 193.000,164.969 C195.209,164.969 197.000,166.760 197.000,168.969 C197.000,171.178 195.209,172.969 193.000,172.969 C193.000,172.969 167.437,172.969 167.437,172.969 C166.137,172.969 164.792,172.623 163.901,171.536 C162.500,169.828 162.748,167.308 164.456,165.906 C164.456,165.906 182.095,150.969 182.095,150.969 C182.095,150.969 167.000,150.969 167.000,150.969 C164.791,150.969 163.000,149.178 163.000,146.969 C163.000,144.760 164.791,142.969 167.000,142.969 C167.000,142.969 193.000,142.991 193.000,142.991 C194.156,142.992 195.303,143.473 196.094,144.436 C197.495,146.144 197.246,148.665 195.538,150.066 C195.538,150.066 177.941,164.969 177.941,164.969 Z" id="path-2" class="cls-4" fill-rule="evenodd"/>
    <path d="M138.011,122.969 C138.011,122.969 168.000,122.969 168.000,122.969 C170.761,122.969 173.000,125.207 173.000,127.969 C173.000,130.730 170.761,132.969 168.000,132.969 C168.000,132.969 124.451,132.969 124.451,132.969 C122.838,133.121 121.183,132.492 120.089,131.138 C118.352,128.991 118.686,125.842 120.833,124.106 C120.833,124.106 153.988,96.969 153.988,96.969 C153.988,96.969 124.000,96.969 124.000,96.969 C121.238,96.969 119.000,94.730 119.000,91.969 C119.000,89.207 121.238,86.969 124.000,86.969 C124.000,86.969 168.000,86.979 168.000,86.979 C169.458,86.978 170.905,87.590 171.893,88.813 C173.630,90.960 173.296,94.108 171.149,95.844 C171.149,95.844 138.011,122.969 138.011,122.969 Z" id="path-3" class="cls-5" fill-rule="evenodd"/>
    <path d="M185.718,60.969 C185.718,60.969 229.000,60.969 229.000,60.969 C233.418,60.969 237.000,64.550 237.000,68.969 C237.000,73.387 233.418,76.969 229.000,76.969 C229.000,76.969 162.000,76.969 162.000,76.969 C162.000,76.969 159.371,77.290 156.713,73.884 C153.994,70.401 154.614,65.374 158.097,62.656 C158.097,62.656 206.269,23.906 206.269,23.906 C206.269,23.906 163.000,23.906 163.000,23.906 C158.582,23.906 155.000,20.324 155.000,15.906 C155.000,11.488 158.582,7.906 163.000,7.906 C163.000,7.906 228.583,7.906 228.583,7.906 C228.583,7.906 232.629,7.567 235.291,10.978 C238.010,14.461 237.390,19.488 233.907,22.207 C233.907,22.207 185.718,60.969 185.718,60.969 Z" id="path-4" class="cls-6" fill-rule="evenodd"/>
  </g>
</svg>